<svg xmlns="http://www.w3.org/2000/svg" width="960" height="270" viewBox="0 0 960 270" font-family="-apple-system,BlinkMacSystemFont,'SF Pro Display','Helvetica Neue','PingFang SC','Microsoft YaHei',sans-serif">
  <defs><marker id="a" viewBox="0 0 10 10" refX="8" refY="5" markerWidth="7" markerHeight="7" orient="auto-start-reverse"><path d="M0,0 L9,5 L0,10 z" fill="#b8b8bf"/></marker></defs>
  <rect width="960" height="270" fill="#fbfbfd"/>
  <rect x="30" y="30" width="900" height="72" rx="14" fill="#f6f8fc" stroke="#e6ecf4"/>
  <text x="48" y="52" font-size="12" font-weight="600" fill="#1d1d1f">① 定义线（低频）</text>
  <g text-anchor="middle" font-size="12">
    <rect x="48" y="60" width="230" height="34" rx="9" fill="#eef3fb" stroke="#bcd0ec"/><text x="163" y="82" fill="#1b2a4a">GRANT/REVOKE·建用户/角色/资源组</text>
    <rect x="318" y="60" width="150" height="34" rx="9" fill="#eef3fb" stroke="#bcd0ec"/><text x="393" y="82" fill="#1b2a4a">写 EditLog</text>
    <rect x="508" y="60" width="170" height="34" rx="9" fill="#eef3fb" stroke="#bcd0ec"/><text x="593" y="82" fill="#1b2a4a">复制到全 FE</text>
    <rect x="718" y="60" width="194" height="34" rx="9" fill="#eef3fb" stroke="#bcd0ec"/><text x="815" y="82" fill="#1b2a4a">策略全集群一致</text>
  </g>
  <g stroke="#c7c7cc" stroke-width="1.4"><line x1="278" y1="77" x2="316" y2="77" marker-end="url(#a)"/><line x1="468" y1="77" x2="506" y2="77" marker-end="url(#a)"/><line x1="678" y1="77" x2="716" y2="77" marker-end="url(#a)"/></g>

  <rect x="30" y="168" width="900" height="72" rx="14" fill="#f5faf6" stroke="#e2ece5"/>
  <text x="48" y="190" font-size="12" font-weight="600" fill="#1d1d1f">② 执行线（每请求）</text>
  <g text-anchor="middle" font-size="12">
    <rect x="48" y="198" width="150" height="34" rx="9" fill="#eafaf1" stroke="#bfe0cd"/><text x="123" y="220" fill="#12402a">认证 AuthN</text>
    <rect x="228" y="198" width="150" height="34" rx="9" fill="#eafaf1" stroke="#bfe0cd"/><text x="303" y="220" fill="#12402a">鉴权 AuthZ</text>
    <rect x="408" y="198" width="170" height="34" rx="9" fill="#eafaf1" stroke="#bfe0cd"/><text x="493" y="220" fill="#12402a">分配 Workload Group</text>
    <rect x="608" y="198" width="150" height="34" rx="9" fill="#eafaf1" stroke="#bfe0cd"/><text x="683" y="220" fill="#12402a">受限执行</text>
    <rect x="788" y="198" width="124" height="34" rx="9" fill="#eafaf1" stroke="#bfe0cd"/><text x="850" y="220" fill="#12402a">审计 Audit</text>
  </g>
  <g stroke="#c7c7cc" stroke-width="1.4"><line x1="198" y1="215" x2="226" y2="215" marker-end="url(#a)"/><line x1="378" y1="215" x2="406" y2="215" marker-end="url(#a)"/><line x1="578" y1="215" x2="606" y2="215" marker-end="url(#a)"/><line x1="758" y1="215" x2="786" y2="215" marker-end="url(#a)"/></g>
  <line x1="480" y1="102" x2="480" y2="166" stroke="#c7c7cc" stroke-width="1.4" stroke-dasharray="4 4" marker-end="url(#a)"/><text x="540" y="138" font-size="10" fill="#a1a1a6" text-anchor="middle">供给策略</text>
</svg>
