<svg xmlns="http://www.w3.org/2000/svg" width="720" height="540" viewBox="0 0 720 540" font-family="-apple-system,BlinkMacSystemFont,'SF Pro Display','Helvetica Neue','PingFang SC','Microsoft YaHei',sans-serif">
  <defs><marker id="a" viewBox="0 0 10 10" refX="8" refY="5" markerWidth="7" markerHeight="7" orient="auto-start-reverse"><path d="M0,0 L9,5 L0,10 z" fill="#b8b8bf"/></marker></defs>
  <rect width="720" height="540" fill="#fbfbfd"/>
  <g text-anchor="middle" font-size="13">
    <rect x="180" y="26" width="240" height="34" rx="10" fill="#eef3fb" stroke="#bcd0ec"/><text x="300" y="48" fill="#1b2a4a">Metadata Root</text>
    <rect x="180" y="82" width="240" height="34" rx="10" fill="#eef3fb" stroke="#bcd0ec"/><text x="300" y="104" fill="#1b2a4a">Catalog（Internal / External）</text>
    <rect x="180" y="138" width="240" height="34" rx="10" fill="#eef3fb" stroke="#bcd0ec"/><text x="300" y="160" fill="#1b2a4a">Database</text>
    <rect x="180" y="194" width="240" height="34" rx="10" fill="#eafaf1" stroke="#bfe0cd"/><text x="300" y="216" fill="#12402a">Table（schema · key · props）</text>
    <rect x="180" y="250" width="240" height="34" rx="10" fill="#eafaf1" stroke="#bfe0cd"/><text x="300" y="272" fill="#12402a">Partition</text>
    <rect x="180" y="306" width="240" height="34" rx="10" fill="#eafaf1" stroke="#bfe0cd"/><text x="300" y="328" fill="#12402a">Index（base/rollup/MV）</text>
    <rect x="180" y="362" width="240" height="34" rx="10" fill="#eafaf1" stroke="#bfe0cd"/><text x="300" y="384" fill="#12402a">Tablet（bucket）</text>
    <rect x="180" y="418" width="240" height="34" rx="10" fill="#eafaf1" stroke="#bfe0cd"/><text x="300" y="440" fill="#12402a">Replica（BE · version · state）</text>
  </g>
  <g stroke="#c7c7cc" stroke-width="1.4"><line x1="300" y1="60" x2="300" y2="80" marker-end="url(#a)"/><line x1="300" y1="116" x2="300" y2="136" marker-end="url(#a)"/><line x1="300" y1="172" x2="300" y2="192" marker-end="url(#a)"/><line x1="300" y1="228" x2="300" y2="248" marker-end="url(#a)"/><line x1="300" y1="284" x2="300" y2="304" marker-end="url(#a)"/><line x1="300" y1="340" x2="300" y2="360" marker-end="url(#a)"/><line x1="300" y1="396" x2="300" y2="416" marker-end="url(#a)"/></g>
  <rect x="440" y="460" width="260" height="66" rx="12" fill="#fdf6ea" stroke="#efdcb4"/><text x="570" y="484" font-size="11" font-weight="600" fill="#5a3410" text-anchor="middle">另存于 Metadata：</text><text x="570" y="502" font-size="10" fill="#7a5a1e" text-anchor="middle">事务状态 · 用户/角色/权限 · 资源组</text><text x="570" y="518" font-size="10" fill="#7a5a1e" text-anchor="middle">Job 状态 · 统计元信息 · FE/BE 节点</text>
  <path d="M420,43 L620,43 L620,458" stroke="#c7c7cc" stroke-width="1.3" stroke-dasharray="4 4" fill="none" marker-end="url(#a)"/>
</svg>
