<svg xmlns="http://www.w3.org/2000/svg" width="820" height="330" viewBox="0 0 820 330" font-family="-apple-system,BlinkMacSystemFont,'SF Pro Display','Helvetica Neue','PingFang SC','Microsoft YaHei',sans-serif">
  <defs><marker id="a" viewBox="0 0 10 10" refX="8" refY="5" markerWidth="7" markerHeight="7" orient="auto-start-reverse"><path d="M0,0 L9,5 L0,10 z" fill="#b8b8bf"/></marker></defs>
  <rect width="820" height="330" fill="#fbfbfd"/>
  <rect x="30" y="30" width="470" height="280" rx="16" fill="#f6f8fc" stroke="#e6ecf4"/>
  <text x="50" y="54" font-size="12" font-weight="600" fill="#1d1d1f">后台守护（异步）</text>
  <g font-size="12" fill="#1b2a4a">
    <rect x="50" y="66" width="430" height="32" rx="9" fill="#fff" stroke="#bcd0ec"/><text x="65" y="87">Compaction（Cumulative / Base / Full）</text>
    <rect x="50" y="104" width="430" height="32" rx="9" fill="#fff" stroke="#bcd0ec"/><text x="65" y="125">Replica Repair / Balance（Clone）</text>
    <rect x="50" y="142" width="430" height="32" rx="9" fill="#fff" stroke="#bcd0ec"/><text x="65" y="163">Materialized View Refresh</text>
    <rect x="50" y="180" width="430" height="32" rx="9" fill="#fff" stroke="#bcd0ec"/><text x="65" y="201">Statistics Collection</text>
    <rect x="50" y="218" width="430" height="32" rx="9" fill="#fff" stroke="#bcd0ec"/><text x="65" y="239">Checkpoint → Image</text>
    <rect x="50" y="256" width="430" height="32" rx="9" fill="#fff" stroke="#bcd0ec"/><text x="65" y="277">GC / Cleanup（过期版本/文件）</text>
  </g>
  <g text-anchor="middle" font-size="13">
    <rect x="620" y="90" width="170" height="48" rx="13" fill="#eafaf1" stroke="#bfe0cd"/><text x="705" y="119" fill="#12402a">查询更快</text>
    <rect x="620" y="200" width="170" height="48" rx="13" fill="#eafaf1" stroke="#bfe0cd"/><text x="705" y="229" fill="#12402a">更可用 / 更均衡</text>
  </g>
  <g stroke="#c7c7cc" stroke-width="1.3" stroke-dasharray="4 4" fill="none">
    <path d="M480,82 L620,110" marker-end="url(#a)"/>
    <path d="M480,158 L620,116" marker-end="url(#a)"/>
    <path d="M480,196 L620,120" marker-end="url(#a)"/>
    <path d="M480,120 L620,216" marker-end="url(#a)"/>
    <path d="M480,234 L620,224" marker-end="url(#a)"/>
    <path d="M480,272 L620,232" marker-end="url(#a)"/>
  </g>
</svg>
