<svg xmlns="http://www.w3.org/2000/svg" width="820" height="330" viewBox="0 0 820 330" font-family="-apple-system,BlinkMacSystemFont,'SF Pro Display','Helvetica Neue','PingFang SC','Microsoft YaHei',sans-serif">
  <defs><filter id="s" x="-20%" y="-20%" width="140%" height="140%"><feDropShadow dx="0" dy="1.5" stdDeviation="4" flood-color="#1d1d1f" flood-opacity="0.07"/></filter><marker id="a" viewBox="0 0 10 10" refX="8" refY="5" markerWidth="7" markerHeight="7" orient="auto-start-reverse"><path d="M0,0 L9,5 L0,10 z" fill="#b8b8bf"/></marker></defs>
  <rect width="820" height="330" fill="#fbfbfd"/>
  <text x="30" y="28" font-size="14" font-weight="600" fill="#1d1d1f">Tablet 多副本：健康检测驱动修复；写需多数派、读任一健康副本</text>
  <rect x="330" y="44" width="160" height="40" rx="12" fill="#eef3fb" stroke="#bcd0ec" filter="url(#s)"/><text x="410" y="69" font-size="12.5" font-weight="600" fill="#1b2a4a" text-anchor="middle">Tablet（bucket）</text>
  <g text-anchor="middle" font-size="11.5">
    <rect x="40" y="128" width="210" height="60" rx="12" fill="#eafaf1" stroke="#bfe0cd" filter="url(#s)"/><text x="145" y="152" font-weight="600" fill="#12402a">Replica 1 · BE-A</text><text x="145" y="172" font-size="10" fill="#2f6f4f">healthy · version 最新</text>
    <rect x="305" y="128" width="210" height="60" rx="12" fill="#fbeaea" stroke="#e7c3c3" filter="url(#s)"/><text x="410" y="152" font-weight="600" fill="#4a1414">Replica 2 · BE-B</text><text x="410" y="172" font-size="10" fill="#a05252">missing（BE 宕机）</text>
    <rect x="570" y="128" width="210" height="60" rx="12" fill="#fff7e6" stroke="#e8cf9a" filter="url(#s)"/><text x="675" y="152" font-weight="600" fill="#5a3410">Replica 3 · BE-C</text><text x="675" y="172" font-size="10" fill="#93762e">version 落后 / corrupt</text>
  </g>
  <g stroke="#c7c7cc" stroke-width="1.4" fill="none">
    <path d="M360,84 L145,126" marker-end="url(#a)"/>
    <path d="M410,84 L410,126" stroke-dasharray="4 3" marker-end="url(#a)"/>
    <path d="M460,84 L675,126" stroke-dasharray="4 3" marker-end="url(#a)"/>
  </g>
  <rect x="290" y="228" width="240" height="52" rx="12" fill="#f5faf6" stroke="#dbe9e0" filter="url(#s)"/><text x="410" y="250" font-size="12" font-weight="600" fill="#2c5a3a" text-anchor="middle">健康检测（Scheduler）</text><text x="410" y="268" font-size="9.5" fill="#4e7a5c" text-anchor="middle">version 完整/最新 · BE 存活</text>
  <g stroke="#c7c7cc" stroke-width="1.3" fill="none" stroke-dasharray="4 3">
    <path d="M330,254 L145,188" marker-start="url(#a)"/>
    <path d="M410,228 L410,188" marker-start="url(#a)"/>
    <path d="M490,254 L675,188" marker-start="url(#a)"/>
  </g>
  <g font-size="9.5" fill="#a1a1a6">
    <text x="196" y="118">写:多数派</text><text x="450" y="118">缺失→Add/Clone</text><text x="560" y="118">落后→Clone 追平</text>
  </g>
  <rect x="40" y="292" width="740" height="30" rx="9" fill="#fafafb" stroke="#ececf1"/><text x="410" y="312" font-size="10.5" fill="#6e6e73" text-anchor="middle">写入需多数派 Replica 成功；查询读任一健康 Replica；不健康副本由调度器补齐 / 克隆修复</text>
</svg>
