<svg xmlns="http://www.w3.org/2000/svg" width="640" height="410" viewBox="0 0 640 410" font-family="-apple-system,BlinkMacSystemFont,'SF Pro Display','Helvetica Neue','PingFang SC','Microsoft YaHei',sans-serif">
  <defs><marker id="a" viewBox="0 0 10 10" refX="8" refY="5" markerWidth="7" markerHeight="7" orient="auto-start-reverse"><path d="M0,0 L9,5 L0,10 z" fill="#b8b8bf"/></marker></defs>
  <rect width="640" height="410" fill="#fbfbfd"/>
  <g text-anchor="middle" font-size="13">
    <rect x="120" y="24" width="400" height="34" rx="10" fill="#eef3fb" stroke="#bcd0ec"/><text x="320" y="46" fill="#1b2a4a">DDL op（CREATE / ALTER / DROP）</text>
    <rect x="120" y="78" width="400" height="34" rx="10" fill="#eef3fb" stroke="#bcd0ec"/><text x="320" y="100" fill="#1b2a4a">校验 + 加锁（db / table）</text>
    <rect x="120" y="132" width="400" height="34" rx="10" fill="#eafaf1" stroke="#bfe0cd"/><text x="320" y="154" fill="#12402a">修改内存 Metadata</text>
    <rect x="120" y="186" width="400" height="34" rx="10" fill="#eef3fb" stroke="#bcd0ec"/><text x="320" y="208" fill="#1b2a4a">生成 EditLog Entry</text>
    <rect x="120" y="240" width="400" height="34" rx="10" fill="#eef3fb" stroke="#bcd0ec"/><text x="320" y="262" fill="#1b2a4a">写 EditLog</text>
    <rect x="120" y="294" width="400" height="34" rx="10" fill="#fff7e6" stroke="#e8cf9a"/><text x="320" y="316" fill="#5a3410">Journal（BDBJE）· 全序 · 复制到多数派</text>
    <rect x="120" y="348" width="400" height="34" rx="10" fill="#fbeaea" stroke="#e7c3c3"/><text x="320" y="370" fill="#4a1414">多数派确认 = 提交点</text>
  </g>
  <g stroke="#c7c7cc" stroke-width="1.4"><line x1="320" y1="58" x2="320" y2="76" marker-end="url(#a)"/><line x1="320" y1="112" x2="320" y2="130" marker-end="url(#a)"/><line x1="320" y1="166" x2="320" y2="184" marker-end="url(#a)"/><line x1="320" y1="220" x2="320" y2="238" marker-end="url(#a)"/><line x1="320" y1="274" x2="320" y2="292" marker-end="url(#a)"/><line x1="320" y1="328" x2="320" y2="346" marker-end="url(#a)"/></g>
</svg>
