<svg xmlns="http://www.w3.org/2000/svg" width="920" height="420" viewBox="0 0 920 420" font-family="-apple-system,BlinkMacSystemFont,'SF Pro Display','Helvetica Neue','PingFang SC','Microsoft YaHei',sans-serif">
  <defs><filter id="soft" x="-20%" y="-20%" width="140%" height="140%"><feDropShadow dx="0" dy="1.5" stdDeviation="4" flood-color="#1d1d1f" flood-opacity="0.07"/></filter></defs>
  <rect width="920" height="420" fill="#fbfbfd"/>
  <text x="30" y="30" font-size="14" font-weight="600" fill="#1d1d1f">接触面操作 × 能力域 依赖矩阵</text>
  <text x="30" y="49" font-size="10" fill="#a1a1a6">■ 强依赖　▨ 中依赖　□ 弱/间接。读该行知一个操作牵动哪些能力域</text>

  <!-- column headers -->
  <g font-size="8.6" text-anchor="middle" fill="#48484a" font-weight="600">
    <text x="250" y="86">时间线</text>
    <text x="322" y="86">表类型</text>
    <text x="394" y="86">写入路径</text>
    <text x="466" y="86">索引</text>
    <text x="538" y="86">MoR读合并</text>
    <text x="610" y="86">文件布局</text>
    <text x="682" y="86">表服务</text>
    <text x="770" y="86">并发·元数据</text>
  </g>
  <!-- row labels -->
  <g font-size="9.5" text-anchor="start" fill="#1d1d1f" font-weight="600">
    <text x="34" y="122">upsert 写</text>
    <text x="34" y="170">快照读</text>
    <text x="34" y="218">读优化读</text>
    <text x="34" y="266">增量读</text>
    <text x="34" y="314">delete 写</text>
  </g>

  <!-- grid cells: helper visual. rows y=108,156,204,252,300 (h40); cols x=214,286,358,430,502,574,646,726 (w66/76) -->
  <!-- Row upsert -->
  <g>
    <rect x="214" y="104" width="64" height="36" rx="7" fill="#1b64c4"/><text x="246" y="126" font-size="10" fill="#fff" text-anchor="middle">■</text>
    <rect x="286" y="104" width="64" height="36" rx="7" fill="#1b64c4"/><text x="318" y="126" font-size="10" fill="#fff" text-anchor="middle">■</text>
    <rect x="358" y="104" width="64" height="36" rx="7" fill="#1b64c4"/><text x="390" y="126" font-size="10" fill="#fff" text-anchor="middle">■</text>
    <rect x="430" y="104" width="64" height="36" rx="7" fill="#1b64c4"/><text x="462" y="126" font-size="10" fill="#fff" text-anchor="middle">■</text>
    <rect x="502" y="104" width="64" height="36" rx="7" fill="#eef3fb" stroke="#cfe0f2"/><text x="534" y="126" font-size="10" fill="#9fb6d8" text-anchor="middle">□</text>
    <rect x="574" y="104" width="64" height="36" rx="7" fill="#7fa8dd"/><text x="606" y="126" font-size="10" fill="#fff" text-anchor="middle">▨</text>
    <rect x="646" y="104" width="64" height="36" rx="7" fill="#eef3fb" stroke="#cfe0f2"/><text x="678" y="126" font-size="10" fill="#9fb6d8" text-anchor="middle">□</text>
    <rect x="726" y="104" width="80" height="36" rx="7" fill="#7fa8dd"/><text x="766" y="126" font-size="10" fill="#fff" text-anchor="middle">▨</text>
  </g>
  <!-- Row 快照读 -->
  <g>
    <rect x="214" y="152" width="64" height="36" rx="7" fill="#7fa8dd"/><text x="246" y="174" font-size="10" fill="#fff" text-anchor="middle">▨</text>
    <rect x="286" y="152" width="64" height="36" rx="7" fill="#7fa8dd"/><text x="318" y="174" font-size="10" fill="#fff" text-anchor="middle">▨</text>
    <rect x="358" y="152" width="64" height="36" rx="7" fill="#eef3fb" stroke="#cfe0f2"/><text x="390" y="174" font-size="10" fill="#9fb6d8" text-anchor="middle">□</text>
    <rect x="430" y="152" width="64" height="36" rx="7" fill="#eef3fb" stroke="#cfe0f2"/><text x="462" y="174" font-size="10" fill="#9fb6d8" text-anchor="middle">□</text>
    <rect x="502" y="152" width="64" height="36" rx="7" fill="#1b64c4"/><text x="534" y="174" font-size="10" fill="#fff" text-anchor="middle">■</text>
    <rect x="574" y="152" width="64" height="36" rx="7" fill="#1b64c4"/><text x="606" y="174" font-size="10" fill="#fff" text-anchor="middle">■</text>
    <rect x="646" y="152" width="64" height="36" rx="7" fill="#7fa8dd"/><text x="678" y="174" font-size="10" fill="#fff" text-anchor="middle">▨</text>
    <rect x="726" y="152" width="80" height="36" rx="7" fill="#7fa8dd"/><text x="766" y="174" font-size="10" fill="#fff" text-anchor="middle">▨</text>
  </g>
  <!-- Row 读优化读 -->
  <g>
    <rect x="214" y="200" width="64" height="36" rx="7" fill="#7fa8dd"/><text x="246" y="222" font-size="10" fill="#fff" text-anchor="middle">▨</text>
    <rect x="286" y="200" width="64" height="36" rx="7" fill="#1b64c4"/><text x="318" y="222" font-size="10" fill="#fff" text-anchor="middle">■</text>
    <rect x="358" y="200" width="64" height="36" rx="7" fill="#eef3fb" stroke="#cfe0f2"/><text x="390" y="222" font-size="10" fill="#9fb6d8" text-anchor="middle">□</text>
    <rect x="430" y="200" width="64" height="36" rx="7" fill="#eef3fb" stroke="#cfe0f2"/><text x="462" y="222" font-size="10" fill="#9fb6d8" text-anchor="middle">□</text>
    <rect x="502" y="200" width="64" height="36" rx="7" fill="#eef3fb" stroke="#cfe0f2"/><text x="534" y="222" font-size="10" fill="#9fb6d8" text-anchor="middle">□</text>
    <rect x="574" y="200" width="64" height="36" rx="7" fill="#1b64c4"/><text x="606" y="222" font-size="10" fill="#fff" text-anchor="middle">■</text>
    <rect x="646" y="200" width="64" height="36" rx="7" fill="#7fa8dd"/><text x="678" y="222" font-size="10" fill="#fff" text-anchor="middle">▨</text>
    <rect x="726" y="200" width="80" height="36" rx="7" fill="#eef3fb" stroke="#cfe0f2"/><text x="766" y="222" font-size="10" fill="#9fb6d8" text-anchor="middle">□</text>
  </g>
  <!-- Row 增量读 -->
  <g>
    <rect x="214" y="248" width="64" height="36" rx="7" fill="#1b64c4"/><text x="246" y="270" font-size="10" fill="#fff" text-anchor="middle">■</text>
    <rect x="286" y="248" width="64" height="36" rx="7" fill="#eef3fb" stroke="#cfe0f2"/><text x="318" y="270" font-size="10" fill="#9fb6d8" text-anchor="middle">□</text>
    <rect x="358" y="248" width="64" height="36" rx="7" fill="#eef3fb" stroke="#cfe0f2"/><text x="390" y="270" font-size="10" fill="#9fb6d8" text-anchor="middle">□</text>
    <rect x="430" y="248" width="64" height="36" rx="7" fill="#eef3fb" stroke="#cfe0f2"/><text x="462" y="270" font-size="10" fill="#9fb6d8" text-anchor="middle">□</text>
    <rect x="502" y="248" width="64" height="36" rx="7" fill="#1b64c4"/><text x="534" y="270" font-size="10" fill="#fff" text-anchor="middle">■</text>
    <rect x="574" y="248" width="64" height="36" rx="7" fill="#7fa8dd"/><text x="606" y="270" font-size="10" fill="#fff" text-anchor="middle">▨</text>
    <rect x="646" y="248" width="64" height="36" rx="7" fill="#eef3fb" stroke="#cfe0f2"/><text x="678" y="270" font-size="10" fill="#9fb6d8" text-anchor="middle">□</text>
    <rect x="726" y="248" width="80" height="36" rx="7" fill="#eef3fb" stroke="#cfe0f2"/><text x="766" y="270" font-size="10" fill="#9fb6d8" text-anchor="middle">□</text>
  </g>
  <!-- Row delete -->
  <g>
    <rect x="214" y="296" width="64" height="36" rx="7" fill="#1b64c4"/><text x="246" y="318" font-size="10" fill="#fff" text-anchor="middle">■</text>
    <rect x="286" y="296" width="64" height="36" rx="7" fill="#7fa8dd"/><text x="318" y="318" font-size="10" fill="#fff" text-anchor="middle">▨</text>
    <rect x="358" y="296" width="64" height="36" rx="7" fill="#1b64c4"/><text x="390" y="318" font-size="10" fill="#fff" text-anchor="middle">■</text>
    <rect x="430" y="296" width="64" height="36" rx="7" fill="#1b64c4"/><text x="462" y="318" font-size="10" fill="#fff" text-anchor="middle">■</text>
    <rect x="502" y="296" width="64" height="36" rx="7" fill="#7fa8dd"/><text x="534" y="318" font-size="10" fill="#fff" text-anchor="middle">▨</text>
    <rect x="574" y="296" width="64" height="36" rx="7" fill="#7fa8dd"/><text x="606" y="318" font-size="10" fill="#fff" text-anchor="middle">▨</text>
    <rect x="646" y="296" width="64" height="36" rx="7" fill="#eef3fb" stroke="#cfe0f2"/><text x="678" y="318" font-size="10" fill="#9fb6d8" text-anchor="middle">□</text>
    <rect x="726" y="296" width="80" height="36" rx="7" fill="#7fa8dd"/><text x="766" y="318" font-size="10" fill="#fff" text-anchor="middle">▨</text>
  </g>

  <text x="34" y="366" font-size="9" fill="#6e6e73">读该矩阵：upsert 强依赖 时间线/表类型/写入路径/索引；快照读强依赖 MoR 读合并/文件布局；</text>
  <text x="34" y="382" font-size="9" fill="#6e6e73">增量读强依赖 时间线（instant 区间）+ MoR 读合并；所有写都触及 时间线 与 并发·元数据。</text>
</svg>
