<svg xmlns="http://www.w3.org/2000/svg" width="980" height="470" viewBox="0 0 980 470" font-family="-apple-system,BlinkMacSystemFont,'SF Pro Display','Helvetica Neue','PingFang SC','Microsoft YaHei',sans-serif"><defs><filter id="soft" x="-20%" y="-20%" width="140%" height="140%"><feDropShadow dx="0" dy="1.5" stdDeviation="4" flood-color="#1d1d1f" flood-opacity="0.07"/></filter><marker id="ar" viewBox="0 0 10 10" refX="8" refY="5" markerWidth="7" markerHeight="7" orient="auto-start-reverse"><path d="M0,0 L9,5 L0,10 z" fill="#b8b8bf"/></marker><marker id="arb" viewBox="0 0 10 10" refX="8" refY="5" markerWidth="7" markerHeight="7" orient="auto-start-reverse"><path d="M0,0 L9,5 L0,10 z" fill="#5b7db1"/></marker></defs><rect width="980" height="470" fill="#fbfbfd"/><text x="30" y="40" font-size="15" font-weight="600" fill="#1d1d1f">ray.init 后的进程拓扑</text><text x="30" y="59" font-size="11.5" fill="#86868b">driver/worker 内嵌 CoreWorker；每节点一个 Raylet+Plasma；head 跑 GCS</text><rect x="40" y="80" width="600" height="300" rx="16" fill="#eaf6ee" stroke="#bfe0c8"/><text x="56" y="101" font-size="12" font-weight="600" fill="#86868b">工作节点</text><rect x="70" y="120" width="240" height="58" rx="12" fill="#eef3fb" stroke="#bcd0ec" filter="url(#soft)"/><rect x="70" y="120" width="4" height="58" rx="2" fill="#5b7db1"/><text x="83" y="141" font-size="12.5" font-weight="600" fill="#1b2a4a">driver（用户脚本）</text><text x="83" y="158" font-size="10.5" fill="#5b7db1">内嵌 CoreWorker</text><text x="83" y="173" font-size="10.5" fill="#5b7db1">task/actor 提交源 · 多数 owner</text><rect x="360" y="120" width="240" height="58" rx="12" fill="#eef3fb" stroke="#bcd0ec" filter="url(#soft)"/><rect x="360" y="120" width="4" height="58" rx="2" fill="#5b7db1"/><text x="373" y="141" font-size="12.5" font-weight="600" fill="#1b2a4a">worker（按需拉起）</text><text x="373" y="158" font-size="10.5" fill="#5b7db1">内嵌 CoreWorker</text><text x="373" y="173" font-size="10.5" fill="#5b7db1">执行 task · 空闲复用</text><rect x="70" y="210" width="240" height="64" rx="12" fill="#eaf6ee" stroke="#bfe0c8" filter="url(#soft)"/><rect x="70" y="210" width="4" height="64" rx="2" fill="#4f8b63"/><text x="83" y="231" font-size="12.5" font-weight="600" fill="#14432a">Raylet（每节点一个）</text><text x="83" y="248" font-size="10.5" fill="#4f8b63">本地调度器 + 对象管理器</text><text x="83" y="263" font-size="10.5" fill="#4f8b63">WorkerPool StartWorkerProcess:462</text><rect x="360" y="210" width="240" height="64" rx="12" fill="#fbf2e0" stroke="#ecd6a8" filter="url(#soft)"/><rect x="360" y="210" width="4" height="64" rx="2" fill="#a9822f"/><text x="373" y="231" font-size="12.5" font-weight="600" fill="#5a3d13">Plasma 对象存储</text><text x="373" y="248" font-size="10.5" fill="#a9822f">随 Raylet 起的共享内存段</text><text x="373" y="263" font-size="10.5" fill="#a9822f">零拷贝多 worker 共读</text><line x1="190.0" y1="178" x2="190.0" y2="210" stroke="#5b7db1" stroke-width="1.6" marker-end="url(#arb)"/><rect x="142.0" y="183.0" width="96.0" height="18" rx="6" fill="#ffffff" stroke="#ececef"/><text x="190.0" y="196.5" font-size="10.5" fill="#86868b" text-anchor="middle">worker lease</text><line x1="480.0" y1="178" x2="480.0" y2="210" stroke="#a9822f" stroke-width="1.6" marker-end="url(#ar)"/><rect x="463.5" y="183.0" width="33.0" height="18" rx="6" fill="#ffffff" stroke="#ececef"/><text x="480.0" y="196.5" font-size="10.5" fill="#86868b" text-anchor="middle">对象值</text><rect x="680" y="80" width="260" height="300" rx="16" fill="#f4ecfa" stroke="#dcc6ec"/><text x="696" y="101" font-size="12" font-weight="600" fill="#86868b">Head 节点</text><rect x="710" y="140" width="200" height="90" rx="12" fill="#e8f5f5" stroke="#b9e0e0" filter="url(#soft)"/><rect x="710" y="140" width="4" height="90" rx="2" fill="#4b9494"/><text x="723" y="161" font-size="12.5" font-weight="600" fill="#134444">GCS 控制面真源</text><text x="723" y="178" font-size="10.5" fill="#4b9494">节点列表 · actor 注册表</text><text x="723" y="193" font-size="10.5" fill="#4b9494">placement group · KV</text><text x="723" y="208" font-size="10.5" fill="#4b9494">pub/sub</text><line x1="310" y1="242.0" x2="710" y2="185.0" stroke="#8158a6" stroke-width="1.6" marker-end="url(#ar)"/><rect x="493.5" y="202.5" width="33.0" height="18" rx="6" fill="#ffffff" stroke="#ececef"/><text x="510.0" y="216.0" font-size="10.5" fill="#86868b" text-anchor="middle">控制面</text><rect x="40" y="398" width="900" height="27" rx="9" fill="#fbf2e0" stroke="#ecd6a8"/><text x="51" y="417" font-size="10.5" fill="#5a3d13" font-weight="600">ray.init(address=...) 连已有集群；无参则本地拉起单节点集群。driver/worker 各经 CoreWorker 与本地 Raylet、远端 GCS 通信。</text></svg>