<svg xmlns="http://www.w3.org/2000/svg" width="980" height="440" viewBox="0 0 980 440" font-family="-apple-system,BlinkMacSystemFont,'SF Pro Display','Helvetica Neue','PingFang SC','Microsoft YaHei',sans-serif"><defs><filter id="soft" x="-20%" y="-20%" width="140%" height="140%"><feDropShadow dx="0" dy="1.5" stdDeviation="4" flood-color="#1d1d1f" flood-opacity="0.07"/></filter><marker id="ar" viewBox="0 0 10 10" refX="8" refY="5" markerWidth="7" markerHeight="7" orient="auto-start-reverse"><path d="M0,0 L9,5 L0,10 z" fill="#b8b8bf"/></marker><marker id="arb" viewBox="0 0 10 10" refX="8" refY="5" markerWidth="7" markerHeight="7" orient="auto-start-reverse"><path d="M0,0 L9,5 L0,10 z" fill="#5b7db1"/></marker></defs><rect width="980" height="440" fill="#fbfbfd"/><text x="30" y="40" font-size="15" font-weight="600" fill="#1d1d1f">Actor 状态机 · 重启与 lineage 重建</text><text x="30" y="59" font-size="11.5" fill="#86868b">GCS 持有 rpc::ActorTableData 完整状态机</text><rect x="40" y="110" width="140" height="50" rx="12" fill="#f2f2f4" stroke="#dadade" filter="url(#soft)"/><rect x="40" y="110" width="4" height="50" rx="2" fill="#86868b"/><text x="53" y="139.0" font-size="10" font-weight="600" fill="#3a3a3c">DEPENDENCIES_UNREADY</text><rect x="210" y="110" width="140" height="50" rx="12" fill="#fbf2e0" stroke="#ecd6a8" filter="url(#soft)"/><rect x="210" y="110" width="4" height="50" rx="2" fill="#a9822f"/><text x="223" y="131" font-size="10.5" font-weight="600" fill="#5a3d13">PENDING_CREATION</text><text x="223" y="148" font-size="10.5" fill="#a9822f">UpdateState:855</text><rect x="400" y="110" width="110" height="50" rx="12" fill="#eaf6ee" stroke="#bfe0c8" filter="url(#soft)"/><rect x="400" y="110" width="4" height="50" rx="2" fill="#4f8b63"/><text x="413" y="139.0" font-size="12.5" font-weight="600" fill="#14432a">ALIVE</text><rect x="560" y="110" width="160" height="50" rx="12" fill="#fcecec" stroke="#f0c9c9" filter="url(#soft)"/><rect x="560" y="110" width="4" height="50" rx="2" fill="#b06a6a"/><text x="573" y="131" font-size="12.5" font-weight="600" fill="#5a1d1d">RESTARTING</text><text x="573" y="148" font-size="10.5" fill="#b06a6a">RestartActor:1444</text><text x="573" y="163" font-size="10.5" fill="#b06a6a">UpdateState:1533</text><rect x="770" y="110" width="110" height="50" rx="12" fill="#f2f2f4" stroke="#dadade" filter="url(#soft)"/><rect x="770" y="110" width="4" height="50" rx="2" fill="#86868b"/><text x="783" y="139.0" font-size="12.5" font-weight="600" fill="#3a3a3c">DEAD</text><line x1="180" y1="135.0" x2="210" y2="135.0" stroke="#b8b8bf" stroke-width="1.6" marker-end="url(#ar)"/><line x1="350" y1="135.0" x2="400" y2="135.0" stroke="#b8b8bf" stroke-width="1.6" marker-end="url(#ar)"/><line x1="510" y1="135.0" x2="560" y2="135.0" stroke="#b8b8bf" stroke-width="1.6" marker-end="url(#ar)"/><rect x="522.0" y="124.0" width="26.0" height="18" rx="6" fill="#ffffff" stroke="#ececef"/><text x="535.0" y="137.5" font-size="10.5" fill="#86868b" text-anchor="middle">故障</text><path d="M640.0,110 Q509.5,110.0 455.0,110" fill="none" stroke="#b8b8bf" stroke-width="1.6" marker-end="url(#ar)"/><rect x="531.0" y="99.0" width="33.0" height="18" rx="6" fill="#ffffff" stroke="#ececef"/><text x="547.5" y="112.5" font-size="10.5" fill="#86868b" text-anchor="middle">重调度</text><path d="M640.0,160 Q770.5,160.0 825.0,160" fill="none" stroke="#b8b8bf" stroke-width="1.6" marker-end="url(#ar)"/><rect x="677.5" y="149.0" width="110.0" height="18" rx="6" fill="#ffffff" stroke="#ececef"/><text x="732.5" y="162.5" font-size="10.5" fill="#86868b" text-anchor="middle">超 max_restarts</text><rect x="210" y="250" width="160" height="54" rx="12" fill="#fcecec" stroke="#f0c9c9" filter="url(#soft)"/><rect x="210" y="250" width="4" height="54" rx="2" fill="#b06a6a"/><text x="223" y="271" font-size="12.5" font-weight="600" fill="#5a1d1d">OnActorSchedulingFailed</text><text x="223" y="288" font-size="10.5" fill="#b06a6a">gcs_actor_manager.cc:1599</text><text x="223" y="303" font-size="10.5" fill="#b06a6a">无可行节点重排/置失败</text><line x1="290.0" y1="250" x2="280.0" y2="160" stroke="#b8b8bf" stroke-width="1.6" stroke-dasharray="5 4" marker-end="url(#ar)"/><rect x="410" y="250" width="180" height="54" rx="12" fill="#fcecec" stroke="#f0c9c9" filter="url(#soft)"/><rect x="410" y="250" width="4" height="54" rx="2" fill="#b06a6a"/><text x="423" y="271" font-size="12.5" font-weight="600" fill="#5a1d1d">lineage 重建</text><text x="423" y="288" font-size="10.5" fill="#b06a6a">下游对象丢失重放方法</text><text x="423" y="303" font-size="10.5" fill="#b06a6a">HandleRestart...:340</text><line x1="500.0" y1="250" x2="455.0" y2="160" stroke="#b8b8bf" stroke-width="1.6" stroke-dasharray="5 4" marker-end="url(#ar)"/><rect x="630" y="250" width="250" height="54" rx="12" fill="#eef3fb" stroke="#bcd0ec" filter="url(#soft)"/><rect x="630" y="250" width="4" height="54" rx="2" fill="#5b7db1"/><text x="643" y="271" font-size="12.5" font-weight="600" fill="#1b2a4a">CoreWorker 侧 handle</text><text x="643" y="288" font-size="10.5" fill="#5b7db1">SubscribeActorState:295 订阅</text><text x="643" y="303" font-size="10.5" fill="#5b7db1">据状态路由方法到新 worker</text><rect x="40" y="330" width="900" height="27" rx="9" fill="#fbf2e0" stroke="#ecd6a8"/><text x="51" y="349" font-size="10.5" fill="#5a3d13" font-weight="600">重启后内存状态丢失（除非 checkpoint）；非 detached actor handle 全释放（引用归零）后销毁，ray.kill 强制 DEAD。</text></svg>