<svg xmlns="http://www.w3.org/2000/svg" width="1000" height="470" viewBox="0 0 1000 470" font-family="-apple-system,BlinkMacSystemFont,'SF Pro Display','Helvetica Neue','PingFang SC','Microsoft YaHei',sans-serif"><defs><filter id="soft" x="-20%" y="-20%" width="140%" height="140%"><feDropShadow dx="0" dy="1.5" stdDeviation="4" flood-color="#1d1d1f" flood-opacity="0.07"/></filter><marker id="ar" viewBox="0 0 10 10" refX="8" refY="5" markerWidth="7" markerHeight="7" orient="auto-start-reverse"><path d="M0,0 L9,5 L0,10 z" fill="#b8b8bf"/></marker><marker id="arb" viewBox="0 0 10 10" refX="8" refY="5" markerWidth="7" markerHeight="7" orient="auto-start-reverse"><path d="M0,0 L9,5 L0,10 z" fill="#5b7db1"/></marker></defs><rect width="1000" height="470" fill="#fbfbfd"/><text x="30" y="40" font-size="15" font-weight="600" fill="#1d1d1f">Actor 的创建与调用两条路径</text><text x="30" y="59" font-size="11.5" fill="#86868b">创建经 GCS 集中调度定居 worker，方法调用才直投该 worker</text><rect x="40" y="96" width="190" height="54" rx="12" fill="#eef3fb" stroke="#bcd0ec" filter="url(#soft)"/><rect x="40" y="96" width="4" height="54" rx="2" fill="#5b7db1"/><text x="53" y="117" font-size="12.5" font-weight="600" fill="#1b2a4a">Actor.remote(args)</text><text x="53" y="134" font-size="10.5" fill="#5b7db1">core_worker.cc:2076</text><text x="53" y="149" font-size="10.5" fill="#5b7db1">CreateActor 构 creation task</text><rect x="280" y="96" width="210" height="54" rx="12" fill="#e8f5f5" stroke="#b9e0e0" filter="url(#soft)"/><rect x="280" y="96" width="4" height="54" rx="2" fill="#4b9494"/><text x="293" y="117" font-size="12.5" font-weight="600" fill="#134444">GCS 注册 actor</text><text x="293" y="134" font-size="10.5" fill="#4b9494">RegisterActor</text><text x="293" y="149" font-size="10.5" fill="#4b9494">gcs_actor_manager.cc:660</text><rect x="540" y="96" width="210" height="54" rx="12" fill="#f4ecfa" stroke="#dcc6ec" filter="url(#soft)"/><rect x="540" y="96" width="4" height="54" rx="2" fill="#8158a6"/><text x="553" y="117" font-size="12.5" font-weight="600" fill="#3d2357">GcsActorScheduler</text><text x="553" y="134" font-size="10.5" fill="#8158a6">选节点 · gcs_actor_scheduler.cc:50</text><text x="553" y="149" font-size="10.5" fill="#8158a6">LeaseWorkerFromNode:235</text><rect x="800" y="96" width="170" height="54" rx="12" fill="#eaf6ee" stroke="#bfe0c8" filter="url(#soft)"/><rect x="800" y="96" width="4" height="54" rx="2" fill="#4f8b63"/><text x="813" y="117" font-size="12.5" font-weight="600" fill="#14432a">定居 → ALIVE</text><text x="813" y="134" font-size="10.5" fill="#4f8b63">OnActorCreationSuccess</text><text x="813" y="149" font-size="10.5" fill="#4f8b63">cc:1652 广播</text><line x1="230" y1="123.0" x2="280" y2="123.0" stroke="#5b7db1" stroke-width="1.6" marker-end="url(#arb)"/><line x1="490" y1="123.0" x2="540" y2="123.0" stroke="#b8b8bf" stroke-width="1.6" marker-end="url(#ar)"/><line x1="750" y1="123.0" x2="800" y2="123.0" stroke="#b8b8bf" stroke-width="1.6" marker-end="url(#ar)"/><rect x="280" y="220" width="210" height="54" rx="12" fill="#eef3fb" stroke="#bcd0ec" filter="url(#soft)"/><rect x="280" y="220" width="4" height="54" rx="2" fill="#5b7db1"/><text x="293" y="241" font-size="12.5" font-weight="600" fill="#1b2a4a">拿到 actor handle</text><text x="293" y="258" font-size="10.5" fill="#5b7db1">方法可发出</text><line x1="885.0" y1="150" x2="490" y2="247.0" stroke="#b8b8bf" stroke-width="1.6" stroke-dasharray="5 4" marker-end="url(#ar)"/><rect x="660.5" y="187.5" width="54.0" height="18" rx="6" fill="#ffffff" stroke="#ececef"/><text x="687.5" y="201.0" font-size="10.5" fill="#86868b" text-anchor="middle">广播给引用者</text><rect x="540" y="220" width="210" height="54" rx="12" fill="#fbf2e0" stroke="#ecd6a8" filter="url(#soft)"/><rect x="540" y="220" width="4" height="54" rx="2" fill="#a9822f"/><text x="553" y="241" font-size="12.5" font-weight="600" fill="#5a3d13">actor.method.remote(x)</text><text x="553" y="258" font-size="10.5" fill="#a9822f">SubmitActorTask</text><text x="553" y="273" font-size="10.5" fill="#a9822f">core_worker.cc:2415</text><rect x="800" y="220" width="170" height="54" rx="12" fill="#fbf2e0" stroke="#ecd6a8" filter="url(#soft)"/><rect x="800" y="220" width="4" height="54" rx="2" fill="#a9822f"/><text x="813" y="241" font-size="12.5" font-weight="600" fill="#5a3d13">定向直投宿主 worker</text><text x="813" y="258" font-size="10.5" fill="#a9822f">按提交序串行执行</text><line x1="490" y1="247.0" x2="540" y2="247.0" stroke="#5b7db1" stroke-width="1.6" marker-end="url(#arb)"/><line x1="750" y1="247.0" x2="800" y2="247.0" stroke="#b8b8bf" stroke-width="1.6" marker-end="url(#ar)"/><rect x="40" y="310" width="930" height="27" rx="9" fill="#fbf2e0" stroke="#ecd6a8"/><text x="51" y="329" font-size="10.5" fill="#5a3d13" font-weight="600">与 task 差异：task 每次向 Raylet 租新 worker、执行完归还；actor 创建时集中调度一次定居 worker，之后方法直投这个固定 worker、串行保状态一致。</text></svg>