<svg xmlns="http://www.w3.org/2000/svg" width="1080" height="520" viewBox="0 0 1080 520" font-family="-apple-system,BlinkMacSystemFont,'SF Pro Display','Helvetica Neue','PingFang SC','Microsoft YaHei',sans-serif">
  <defs><filter id="soft" x="-20%" y="-20%" width="140%" height="140%"><feDropShadow dx="0" dy="1.5" stdDeviation="4" flood-color="#1d1d1f" flood-opacity="0.07"/></filter></defs>
  <rect width="1080" height="520" fill="#fbfbfd"/>
  <text x="30" y="30" font-size="15" font-weight="700" fill="#1d1d1f">GORM 依赖矩阵 · 接触面操作 × 支撑能力域</text>
  <text x="30" y="50" font-size="10.5" fill="#a1a1a6">每种操作实际触达哪些能力域。● 直接依赖  ○ 间接依赖</text>
  <g font-size="8" text-anchor="middle" font-weight="600" fill="#48484a">
    <text x="340" y="90">Statement</text><text x="430" y="90">callbacks</text><text x="520" y="90">clause</text><text x="606" y="90">schema</text><text x="694" y="90">关联</text><text x="778" y="90">事务</text><text x="866" y="90">方言池</text><text x="952" y="90">Migrator</text>
  </g>
  <line x1="30" y1="98" x2="1000" y2="98" stroke="#d2d2d7" stroke-width="1"/>
  <!-- rows -->
  <g>
    <rect x="30" y="102" width="270" height="52" rx="8" fill="#f4eefb" stroke="#d9c7ec"/><text x="44" y="126" font-size="10" font-weight="700" fill="#3d2a5a">模型定义</text><text x="44" y="144" font-size="7.5" fill="#7a5a95">struct+tag→表</text>
    <text x="606" y="132" font-size="12" text-anchor="middle" fill="#3d2a5a">●</text><text x="952" y="132" font-size="12" text-anchor="middle" fill="#3d2a5a">●</text><text x="694" y="132" font-size="12" text-anchor="middle" fill="#b6a0cf">○</text>
  </g>
  <g>
    <rect x="30" y="160" width="270" height="52" rx="8" fill="#f4eefb" stroke="#d9c7ec"/><text x="44" y="184" font-size="10" font-weight="700" fill="#3d2a5a">链式查询</text><text x="44" y="202" font-size="7.5" fill="#7a5a95">Where/Find…</text>
    <text x="340" y="190" font-size="12" text-anchor="middle" fill="#3d2a5a">●</text><text x="430" y="190" font-size="12" text-anchor="middle" fill="#3d2a5a">●</text><text x="520" y="190" font-size="12" text-anchor="middle" fill="#3d2a5a">●</text><text x="606" y="190" font-size="12" text-anchor="middle" fill="#3d2a5a">●</text><text x="694" y="190" font-size="12" text-anchor="middle" fill="#b6a0cf">○</text><text x="866" y="190" font-size="12" text-anchor="middle" fill="#3d2a5a">●</text>
  </g>
  <g>
    <rect x="30" y="218" width="270" height="52" rx="8" fill="#eafaf1" stroke="#bfe0cd"/><text x="44" y="242" font-size="10" font-weight="700" fill="#12402a">Create/写入</text><text x="44" y="260" font-size="7.5" fill="#2f6f4f">Create/Save</text>
    <text x="340" y="248" font-size="12" text-anchor="middle" fill="#12402a">●</text><text x="430" y="248" font-size="12" text-anchor="middle" fill="#12402a">●</text><text x="520" y="248" font-size="12" text-anchor="middle" fill="#12402a">●</text><text x="606" y="248" font-size="12" text-anchor="middle" fill="#12402a">●</text><text x="694" y="248" font-size="12" text-anchor="middle" fill="#8ab89a">○</text><text x="778" y="248" font-size="12" text-anchor="middle" fill="#12402a">●</text><text x="866" y="248" font-size="12" text-anchor="middle" fill="#12402a">●</text>
  </g>
  <g>
    <rect x="30" y="276" width="270" height="52" rx="8" fill="#eef3fb" stroke="#bcd0ec"/><text x="44" y="300" font-size="10" font-weight="700" fill="#1b2a4a">Query/查询</text><text x="44" y="318" font-size="7.5" fill="#5b7db1">First/Find</text>
    <text x="340" y="306" font-size="12" text-anchor="middle" fill="#1b2a4a">●</text><text x="430" y="306" font-size="12" text-anchor="middle" fill="#1b2a4a">●</text><text x="520" y="306" font-size="12" text-anchor="middle" fill="#1b2a4a">●</text><text x="606" y="306" font-size="12" text-anchor="middle" fill="#1b2a4a">●</text><text x="694" y="306" font-size="12" text-anchor="middle" fill="#1b2a4a">●</text><text x="866" y="306" font-size="12" text-anchor="middle" fill="#1b2a4a">●</text>
  </g>
  <g>
    <rect x="30" y="334" width="270" height="52" rx="8" fill="#eef3fb" stroke="#bcd0ec"/><text x="44" y="358" font-size="10" font-weight="700" fill="#1b2a4a">Preload</text><text x="44" y="376" font-size="7.5" fill="#5b7db1">关联预加载</text>
    <text x="340" y="364" font-size="12" text-anchor="middle" fill="#1b2a4a">●</text><text x="430" y="364" font-size="12" text-anchor="middle" fill="#1b2a4a">●</text><text x="606" y="364" font-size="12" text-anchor="middle" fill="#1b2a4a">●</text><text x="694" y="364" font-size="12" text-anchor="middle" fill="#1b2a4a">●</text><text x="866" y="364" font-size="12" text-anchor="middle" fill="#1b2a4a">●</text>
  </g>
  <g>
    <rect x="30" y="392" width="270" height="52" rx="8" fill="#fff7e6" stroke="#e8cf9a"/><text x="44" y="416" font-size="10" font-weight="700" fill="#5a3410">AutoMigrate</text><text x="44" y="434" font-size="7.5" fill="#93762e">建表/迁移</text>
    <text x="606" y="422" font-size="12" text-anchor="middle" fill="#5a3410">●</text><text x="866" y="422" font-size="12" text-anchor="middle" fill="#5a3410">●</text><text x="952" y="422" font-size="12" text-anchor="middle" fill="#5a3410">●</text><text x="694" y="422" font-size="12" text-anchor="middle" fill="#d1b483">○</text>
  </g>
  <g stroke="#ececf1" stroke-width="1">
    <line x1="386" y1="98" x2="386" y2="444"/><line x1="476" y1="98" x2="476" y2="444"/><line x1="564" y1="98" x2="564" y2="444"/><line x1="650" y1="98" x2="650" y2="444"/><line x1="738" y1="98" x2="738" y2="444"/><line x1="822" y1="98" x2="822" y2="444"/><line x1="910" y1="98" x2="910" y2="444"/>
  </g>
  <rect x="30" y="456" width="1020" height="48" rx="12" fill="#f7f7f9" stroke="#ececf1"/>
  <text x="46" y="478" font-size="9" fill="#6e6e73">· 读写都经 Statement 累积→callbacks 执行→clause 拼 SQL→方言池落库,schema 反射是公共底座;写入额外走事务,Preload 走关联,AutoMigrate 走 Migrator</text>
  <text x="46" y="496" font-size="8.5" fill="#b1483a">· 每格都能在对应能力域正文对上——callbacks 是所有读写的执行中枢(灵魂),schema 是所有操作的元数据源</text>
</svg>
