<svg xmlns="http://www.w3.org/2000/svg" width="980" height="500" viewBox="0 0 980 500" font-family="-apple-system,BlinkMacSystemFont,'SF Pro Display','Helvetica Neue','PingFang SC','Microsoft YaHei',sans-serif"><defs><filter id="soft" x="-20%" y="-20%" width="140%" height="140%"><feDropShadow dx="0" dy="1.5" stdDeviation="4" flood-color="#1d1d1f" flood-opacity="0.07"/></filter><marker id="ar" viewBox="0 0 10 10" refX="8" refY="5" markerWidth="7" markerHeight="7" orient="auto-start-reverse"><path d="M0,0 L9,5 L0,10 z" fill="#b8b8bf"/></marker><marker id="arb" viewBox="0 0 10 10" refX="8" refY="5" markerWidth="7" markerHeight="7" orient="auto-start-reverse"><path d="M0,0 L9,5 L0,10 z" fill="#5b7db1"/></marker></defs><rect width="980" height="500" fill="#fbfbfd"/><text x="30" y="40" font-size="15" font-weight="600" fill="#1d1d1f">双维模型 · 接触面 × 能力域</text><text x="30" y="59" font-size="11.5" fill="#86868b">一个知识点归哪条主线，看它的能力域，而非出现在哪个文件/API</text><rect x="40" y="78" width="900" height="92" rx="16" fill="#eef3fb" stroke="#bcd0ec"/><text x="56" y="99" font-size="12" font-weight="600" fill="#86868b">接触面主线 · 外部怎么用（应用只面对三样）</text><rect x="60" y="106" width="278" height="50" rx="12" fill="#eef3fb" stroke="#bcd0ec" filter="url(#soft)"/><text x="73" y="127" font-size="12.5" font-weight="600" fill="#1b2a4a">远程任务与对象</text><text x="73" y="144" font-size="10.5" fill="#5b7db1">@ray.remote 函数 · .remote · ray.get/put</text><rect x="352" y="106" width="278" height="50" rx="12" fill="#eef3fb" stroke="#bcd0ec" filter="url(#soft)"/><text x="365" y="127" font-size="12.5" font-weight="600" fill="#1b2a4a">Actor 编程模型</text><text x="365" y="144" font-size="10.5" fill="#5b7db1">@ray.remote 类 · 有状态远程对象</text><rect x="644" y="106" width="276" height="50" rx="12" fill="#eef3fb" stroke="#bcd0ec" filter="url(#soft)"/><text x="657" y="127" font-size="12.5" font-weight="600" fill="#1b2a4a">集群与运行时</text><text x="657" y="144" font-size="10.5" fill="#5b7db1">ray.init · driver/worker · runtime env</text><rect x="40" y="200" width="900" height="250" rx="16" fill="#f2f2f4" stroke="#dadade"/><text x="56" y="221" font-size="12" font-weight="600" fill="#86868b">支撑能力域 · 内部靠什么（8 条公共机制）</text><rect x="60" y="232" width="208" height="44" rx="12" fill="#eaf6ee" stroke="#bfe0c8" filter="url(#soft)"/><text x="73" y="258.0" font-size="11.5" font-weight="600" fill="#14432a">远程 task 提交与依赖</text><rect x="280" y="232" width="208" height="44" rx="12" fill="#f4ecfa" stroke="#dcc6ec" filter="url(#soft)"/><text x="293" y="258.0" font-size="11.5" font-weight="600" fill="#3d2357">Actor 生命周期与调度</text><rect x="500" y="232" width="208" height="44" rx="12" fill="#fbf2e0" stroke="#ecd6a8" filter="url(#soft)"/><text x="513" y="258.0" font-size="11.5" font-weight="600" fill="#5a3d13">分布式对象存储</text><rect x="720" y="232" width="208" height="44" rx="12" fill="#e8f5f5" stroke="#b9e0e0" filter="url(#soft)"/><text x="733" y="258.0" font-size="11.5" font-weight="600" fill="#134444">全局控制存储 GCS</text><rect x="60" y="334" width="208" height="44" rx="12" fill="#eaf6ee" stroke="#bfe0c8" filter="url(#soft)"/><text x="73" y="360.0" font-size="11.5" font-weight="600" fill="#14432a">分布式调度</text><rect x="280" y="334" width="208" height="44" rx="12" fill="#fcecec" stroke="#f0c9c9" filter="url(#soft)"/><text x="293" y="360.0" font-size="11.5" font-weight="600" fill="#5a1d1d">引用计数与容错</text><rect x="500" y="334" width="208" height="44" rx="12" fill="#fbf2e0" stroke="#ecd6a8" filter="url(#soft)"/><text x="513" y="360.0" font-size="11.5" font-weight="600" fill="#5a3d13">资源管理与放置组</text><rect x="720" y="334" width="208" height="44" rx="12" fill="#f3f7fc" stroke="#cfe0f2" filter="url(#soft)"/><text x="733" y="360.0" font-size="11.5" font-weight="600" fill="#1b2a4a">集群自动伸缩与运行时环境</text><rect x="60" y="372" width="860" height="27" rx="9" fill="#fbf2e0" stroke="#ecd6a8"/><text x="71" y="391" font-size="10.5" fill="#5a3d13" font-weight="600">叉乘关系：每条接口主线由若干能力域支撑；ray.get 从「远程任务」触发，但「值存哪/怎么取回/丢了怎么办」属「对象存储」与「引用计数容错」。</text></svg>