<svg xmlns="http://www.w3.org/2000/svg" width="960" height="430" viewBox="0 0 960 430" font-family="-apple-system,BlinkMacSystemFont,'SF Pro Display','Helvetica Neue','PingFang SC','Microsoft YaHei',sans-serif"><defs><filter id="soft" x="-20%" y="-20%" width="140%" height="140%"><feDropShadow dx="0" dy="1.5" stdDeviation="4" flood-color="#1d1d1f" flood-opacity="0.07"/></filter><marker id="ar" viewBox="0 0 10 10" refX="8" refY="5" markerWidth="7" markerHeight="7" orient="auto-start-reverse"><path d="M0,0 L9,5 L0,10 z" fill="#b8b8bf"/></marker><marker id="arb" viewBox="0 0 10 10" refX="8" refY="5" markerWidth="7" markerHeight="7" orient="auto-start-reverse"><path d="M0,0 L9,5 L0,10 z" fill="#5b7db1"/></marker></defs><rect width="960" height="430" fill="#fbfbfd"/><text x="30" y="40" font-size="15" font-weight="600" fill="#1d1d1f">跨节点传输 · Pull / Push</text><text x="30" y="59" font-size="11.5" fill="#86868b">分块 + 内存感知限流，把「数据依赖」翻译成「对象传输」</text><rect x="40" y="90" width="380" height="220" rx="16" fill="#eaf6ee" stroke="#bfe0c8"/><text x="56" y="111" font-size="12" font-weight="600" fill="#86868b">节点 A（有副本）</text><rect x="70" y="140" width="320" height="54" rx="12" fill="#fbf2e0" stroke="#ecd6a8" filter="url(#soft)"/><text x="83" y="161" font-size="12.5" font-weight="600" fill="#5a3d13">Plasma（primary copy）</text><text x="83" y="178" font-size="10.5" fill="#a9822f">对象已在此</text><rect x="70" y="224" width="320" height="54" rx="12" fill="#eef3fb" stroke="#bcd0ec" filter="url(#soft)"/><text x="83" y="245" font-size="12.5" font-weight="600" fill="#1b2a4a">Push 分块推送</text><text x="83" y="262" font-size="10.5" fill="#5b7db1">PushObjectInternal</text><text x="83" y="277" font-size="10.5" fill="#5b7db1">SendObjectChunk</text><line x1="230.0" y1="194" x2="230.0" y2="224" stroke="#5b7db1" stroke-width="1.6" marker-end="url(#arb)"/><rect x="540" y="90" width="380" height="220" rx="16" fill="#e8f5f5" stroke="#b9e0e0"/><text x="556" y="111" font-size="12" font-weight="600" fill="#86868b">节点 B（消费方）</text><rect x="570" y="140" width="320" height="54" rx="12" fill="#eaf6ee" stroke="#bfe0c8" filter="url(#soft)"/><text x="583" y="161" font-size="12.5" font-weight="600" fill="#14432a">Pull 请求 + 限流</text><text x="583" y="178" font-size="10.5" fill="#4f8b63">ObjectManager::Pull</text><text x="583" y="193" font-size="10.5" fill="#4f8b63">UpdatePullsBasedOnAvailableMemory</text><rect x="570" y="224" width="320" height="54" rx="12" fill="#fbf2e0" stroke="#ecd6a8" filter="url(#soft)"/><text x="583" y="245" font-size="12.5" font-weight="600" fill="#5a3d13">落本地 Plasma</text><text x="583" y="262" font-size="10.5" fill="#a9822f">HandlePush · task 放行</text><line x1="730.0" y1="194" x2="570" y2="251.0" stroke="#b8b8bf" stroke-width="1.6" stroke-dasharray="5 4" marker-end="url(#ar)"/><line x1="390" y1="251.0" x2="570" y2="251.0" stroke="#5b7db1" stroke-width="1.6" marker-end="url(#arb)"/><rect x="460.0" y="240.0" width="40.0" height="18" rx="6" fill="#ffffff" stroke="#ececef"/><text x="480.0" y="253.5" font-size="10.5" fill="#86868b" text-anchor="middle">分块传输</text><line x1="570" y1="167.0" x2="390" y2="167.0" stroke="#b8b8bf" stroke-width="1.6" stroke-dasharray="5 4" marker-end="url(#ar)"/><rect x="467.0" y="156.0" width="26.0" height="18" rx="6" fill="#ffffff" stroke="#ececef"/><text x="480.0" y="169.5" font-size="10.5" fill="#86868b" text-anchor="middle">请求</text></svg>