<svg xmlns="http://www.w3.org/2000/svg" width="960" height="430" viewBox="0 0 960 430" font-family="-apple-system,BlinkMacSystemFont,'SF Pro Display','Helvetica Neue','PingFang SC','Microsoft YaHei',sans-serif"><defs><filter id="soft" x="-20%" y="-20%" width="140%" height="140%"><feDropShadow dx="0" dy="1.5" stdDeviation="4" flood-color="#1d1d1f" flood-opacity="0.07"/></filter><marker id="ar" viewBox="0 0 10 10" refX="8" refY="5" markerWidth="7" markerHeight="7" orient="auto-start-reverse"><path d="M0,0 L9,5 L0,10 z" fill="#b8b8bf"/></marker><marker id="arb" viewBox="0 0 10 10" refX="8" refY="5" markerWidth="7" markerHeight="7" orient="auto-start-reverse"><path d="M0,0 L9,5 L0,10 z" fill="#5b7db1"/></marker></defs><rect width="960" height="430" fill="#fbfbfd"/><text x="30" y="40" font-size="15" font-weight="600" fill="#1d1d1f">Actor 生命周期状态机与容错</text><text x="30" y="59" font-size="11.5" fill="#86868b">重启只重建进程、内存状态丢失（除非应用自做 checkpoint）</text><rect x="40" y="110" width="150" height="50" rx="12" fill="#f2f2f4" stroke="#dadade" filter="url(#soft)"/><text x="53" y="139.0" font-size="10.5" font-weight="600" fill="#3a3a3c">DEPENDENCIES_UNREADY</text><rect x="250" y="110" width="150" height="50" rx="12" fill="#fbf2e0" stroke="#ecd6a8" filter="url(#soft)"/><text x="263" y="139.0" font-size="11" font-weight="600" fill="#5a3d13">PENDING_CREATION</text><rect x="460" y="110" width="120" height="50" rx="12" fill="#eaf6ee" stroke="#bfe0c8" filter="url(#soft)"/><text x="473" y="139.0" font-size="12.5" font-weight="600" fill="#14432a">ALIVE</text><rect x="640" y="110" width="150" height="50" rx="12" fill="#fcecec" stroke="#f0c9c9" filter="url(#soft)"/><text x="653" y="131" font-size="12.5" font-weight="600" fill="#5a1d1d">RESTARTING</text><text x="653" y="148" font-size="10.5" fill="#b06a6a">max_restarts</text><rect x="840" y="110" width="90" height="50" rx="12" fill="#f2f2f4" stroke="#dadade" filter="url(#soft)"/><text x="853" y="139.0" font-size="12.5" font-weight="600" fill="#3a3a3c">DEAD</text><line x1="190" y1="135.0" x2="250" y2="135.0" stroke="#b8b8bf" stroke-width="1.6" marker-end="url(#ar)"/><rect x="200.0" y="124.0" width="40.0" height="18" rx="6" fill="#ffffff" stroke="#ececef"/><text x="220.0" y="137.5" font-size="10.5" fill="#86868b" text-anchor="middle">依赖就绪</text><line x1="400" y1="135.0" x2="460" y2="135.0" stroke="#b8b8bf" stroke-width="1.6" marker-end="url(#ar)"/><rect x="410.0" y="124.0" width="40.0" height="18" rx="6" fill="#ffffff" stroke="#ececef"/><text x="430.0" y="137.5" font-size="10.5" fill="#86868b" text-anchor="middle">创建成功</text><line x1="580" y1="135.0" x2="640" y2="135.0" stroke="#b8b8bf" stroke-width="1.6" marker-end="url(#ar)"/><rect x="597.0" y="124.0" width="26.0" height="18" rx="6" fill="#ffffff" stroke="#ececef"/><text x="610.0" y="137.5" font-size="10.5" fill="#86868b" text-anchor="middle">故障</text><path d="M715.0,110 Q577.5,110.0 520.0,110" fill="none" stroke="#b8b8bf" stroke-width="1.6" marker-end="url(#ar)"/><rect x="604.5" y="99.0" width="26.0" height="18" rx="6" fill="#ffffff" stroke="#ececef"/><text x="617.5" y="112.5" font-size="10.5" fill="#86868b" text-anchor="middle">重建</text><path d="M715.0,160 Q840.0,160.0 885.0,160" fill="none" stroke="#b8b8bf" stroke-width="1.6" marker-end="url(#ar)"/><rect x="787.0" y="149.0" width="26.0" height="18" rx="6" fill="#ffffff" stroke="#ececef"/><text x="800.0" y="162.5" font-size="10.5" fill="#86868b" text-anchor="middle">超限</text><rect x="250" y="250" width="200" height="54" rx="12" fill="#fcecec" stroke="#f0c9c9" filter="url(#soft)"/><text x="263" y="271" font-size="12.5" font-weight="600" fill="#5a1d1d">lineage 重建</text><text x="263" y="288" font-size="10.5" fill="#b06a6a">下游对象丢失需重放方法</text><line x1="350.0" y1="250" x2="520.0" y2="160" stroke="#b8b8bf" stroke-width="1.6" stroke-dasharray="5 4" marker-end="url(#ar)"/><rect x="540" y="250" width="220" height="54" rx="12" fill="#f4ecfa" stroke="#dcc6ec" filter="url(#soft)"/><text x="553" y="271" font-size="12.5" font-weight="600" fill="#3d2357">detached actor</text><text x="553" y="288" font-size="10.5" fill="#8158a6">脱离 driver · namespace+name</text><text x="553" y="303" font-size="10.5" fill="#8158a6">driver 退出仍存活</text><rect x="40" y="330" width="880" height="27" rx="9" fill="#fbf2e0" stroke="#ecd6a8"/><text x="51" y="349" font-size="10.5" fill="#5a3d13" font-weight="600">非 detached actor 的所有 handle 释放（引用归零）后自动销毁；ray.kill 强制置 DEAD。</text></svg>