<svg xmlns="http://www.w3.org/2000/svg" width="900" height="250" viewBox="0 0 900 250" font-family="-apple-system,BlinkMacSystemFont,'SF Pro Display','Helvetica Neue','PingFang SC','Microsoft YaHei',sans-serif">
  <defs><filter id="s" x="-20%" y="-20%" width="140%" height="140%"><feDropShadow dx="0" dy="1.5" stdDeviation="4" flood-color="#1d1d1f" flood-opacity="0.07"/></filter><marker id="a" viewBox="0 0 10 10" refX="8" refY="5" markerWidth="7" markerHeight="7" orient="auto-start-reverse"><path d="M0,0 L9,5 L0,10 z" fill="#b8b8bf"/></marker></defs>
  <rect width="900" height="250" fill="#fbfbfd"/>
  <g text-anchor="middle">
    <rect x="360" y="20" width="180" height="42" rx="12" fill="#f4eefb" stroke="#e2d3f3" filter="url(#s)"/><text x="450" y="46" font-size="14" font-weight="600" fill="#42246b">按数据来源选导入</text>
    <rect x="30" y="122" width="195" height="64" rx="14" fill="#eef3fb" stroke="#bcd0ec" filter="url(#s)"/><text x="127" y="150" font-size="13" font-weight="600" fill="#1b2a4a">Stream Load</text><text x="127" y="172" font-size="10.5" fill="#5b7db1">HTTP 实时推流 · 低延迟</text>
    <rect x="245" y="122" width="195" height="64" rx="14" fill="#eef3fb" stroke="#bcd0ec" filter="url(#s)"/><text x="342" y="150" font-size="13" font-weight="600" fill="#1b2a4a">Routine Load</text><text x="342" y="172" font-size="10.5" fill="#5b7db1">消息队列 · offset 续传</text>
    <rect x="460" y="122" width="195" height="64" rx="14" fill="#eef3fb" stroke="#bcd0ec" filter="url(#s)"/><text x="557" y="150" font-size="13" font-weight="600" fill="#1b2a4a">Broker / 对象存储</text><text x="557" y="172" font-size="10.5" fill="#5b7db1">远端文件 · 大批离线</text>
    <rect x="675" y="122" width="195" height="64" rx="14" fill="#eef3fb" stroke="#bcd0ec" filter="url(#s)"/><text x="772" y="150" font-size="13" font-weight="600" fill="#1b2a4a">INSERT ... SELECT</text><text x="772" y="172" font-size="10.5" fill="#5b7db1">SQL 结果 · 复用执行引擎</text>
    <rect x="230" y="208" width="440" height="32" rx="10" fill="#fff7e6" stroke="#e8cf9a" filter="url(#s)"/><text x="450" y="228" font-size="11.5" fill="#5a3410">高频小批：任意方式叠加 Group Commit 攒批，降版本数</text>
  </g>
  <g stroke="#c7c7cc" stroke-width="1.4" fill="none">
    <path d="M450,62 L450,98 L127,98 L127,122" marker-end="url(#a)"/>
    <path d="M450,62 L450,98 L342,98 L342,122" marker-end="url(#a)"/>
    <path d="M450,62 L450,98 L557,98 L557,122" marker-end="url(#a)"/>
    <path d="M450,62 L450,98 L772,98 L772,122" marker-end="url(#a)"/>
  </g>
</svg>
